<svg xmlns="http://www.w3.org/2000/svg" width="1200" height="675" viewBox="0 0 1200 675" fill="none">
  <defs>
    <linearGradient id="g1" x1="0" y1="0" x2="1" y2="0">
      <stop offset="0%" stop-color="#818cf8"/>
      <stop offset="55%" stop-color="#c084fc"/>
      <stop offset="100%" stop-color="#e879f9"/>
    </linearGradient>
  </defs>
  <rect width="1200" height="675" fill="#050505"/>
  <rect x="48" y="48" width="1104" height="579" rx="12" stroke="rgba(255,255,255,0.08)" stroke-width="1" fill="#0a0a0a"/>
  <text x="72" y="92" fill="rgba(129,140,248,0.7)" font-family="ui-monospace, monospace" font-size="11" letter-spacing="0.2em">// SIGNATURE_BUILDER</text>
  <rect x="72" y="118" width="420" height="420" rx="10" stroke="rgba(255,255,255,0.08)" fill="#0e0e0e"/>
  <rect x="96" y="152" width="360" height="10" rx="3" fill="#1a1a1a" stroke="rgba(255,255,255,0.06)"/>
  <rect x="96" y="182" width="280" height="10" rx="3" fill="#1a1a1a" stroke="rgba(255,255,255,0.06)"/>
  <rect x="96" y="212" width="320" height="10" rx="3" fill="#1a1a1a" stroke="rgba(255,255,255,0.06)"/>
  <rect x="96" y="260" width="120" height="120" rx="8" stroke="rgba(129,140,248,0.35)" fill="rgba(129,140,248,0.08)"/>
  <rect x="232" y="260" width="200" height="14" rx="3" fill="#262626"/>
  <rect x="232" y="284" width="160" height="10" rx="2" fill="#1f1f1f"/>
  <rect x="232" y="304" width="140" height="10" rx="2" fill="#1a1a1a"/>
  <rect x="520" y="118" width="608" height="420" rx="10" stroke="rgba(255,255,255,0.1)" fill="#fafafa"/>
  <rect x="552" y="152" width="544" height="4" rx="1" fill="url(#g1)"/>
  <text x="552" y="210" fill="#111827" font-family="system-ui, sans-serif" font-size="20" font-weight="700" letter-spacing="-0.02em">Jmeno Prijmeni</text>
  <text x="552" y="242" fill="#6b7280" font-family="system-ui, sans-serif" font-size="13">Role | Organizace</text>
  <line x1="552" y1="268" x2="1060" y2="268" stroke="#e5e7eb"/>
  <text x="552" y="300" fill="#374151" font-family="system-ui, sans-serif" font-size="12">+420 xxx xxx xxx</text>
  <text x="552" y="328" fill="#374151" font-family="system-ui, sans-serif" font-size="12">email@example.com</text>
  <text x="552" y="356" fill="#9ca3af" font-family="system-ui, sans-serif" font-size="11">www.example.com</text>
  <rect x="552" y="392" width="88" height="28" rx="6" fill="#f3f4f6" stroke="#e5e7eb"/>
  <text x="568" y="411" fill="#6b7280" font-family="system-ui, sans-serif" font-size="10" font-weight="600">PREVIEW</text>
  <text x="72" y="598" fill="#52525b" font-family="ui-monospace, monospace" font-size="10" letter-spacing="0.14em">VANILLA HTML / CSS / LIVE PREVIEW</text>
</svg>
